<svg viewBox="0 0 24 24" width="24" height="24" fill="none" xmlns="http://www.w3.org/2000/svg"><g class="nc-icon-wrapper" fill="none"><g mask="url(#ic_mic_glass_mic_mask)" fill="url(#ic_mic_glass_mic_dark)"><path d="M3.95,14.65 A9.3,9.3 0 0 0 20.05,14.65 L18.06,13.5 A7.0,7.0 0 0 1 5.94,13.5 Z"></path><rect x="10.9" y="17" width="2.2" height="4.6" rx="1.1"></rect><rect x="7.5" y="20.7" width="9" height="1.9" rx="0.95"></rect></g><g filter="url(#ic_mic_glass_mic_blur)" clip-path="url(#ic_mic_glass_mic_clip)" fill="url(#ic_mic_glass_mic_dark)"><path d="M3.95,14.65 A9.3,9.3 0 0 0 20.05,14.65 L18.06,13.5 A7.0,7.0 0 0 1 5.94,13.5 Z"></path><rect x="10.9" y="17" width="2.2" height="4.6" rx="1.1"></rect></g><rect x="6.75" y="0.75" width="10.5" height="13.75" rx="5.25" fill="url(#ic_mic_glass_mic_glass)"></rect><rect x="7.35" y="1.35" width="9.3" height="12.55" rx="4.65" fill="none" stroke="url(#ic_mic_glass_mic_light)" stroke-width="1.2"></rect></g><defs><linearGradient id="ic_mic_glass_mic_dark" x1="12" y1="12" x2="12" y2="22.6" gradientUnits="userSpaceOnUse"><stop stop-color="#454B85"></stop><stop offset="1" stop-color="#101430"></stop></linearGradient><linearGradient id="ic_mic_glass_mic_glass" x1="12" y1="0.75" x2="12" y2="14.5" gradientUnits="userSpaceOnUse"><stop stop-color="rgba(240, 235, 219, 0.6)"></stop><stop offset="1" stop-color="rgba(228, 222, 202, 0.55)"></stop></linearGradient><linearGradient id="ic_mic_glass_mic_light" x1="12" y1="0.75" x2="12" y2="9" gradientUnits="userSpaceOnUse"><stop stop-color="#FEFCF6"></stop><stop offset="1" stop-color="#FEFCF6" stop-opacity="0"></stop></linearGradient><filter id="ic_mic_glass_mic_blur" x="-100%" y="-100%" width="400%" height="400%" filterUnits="objectBoundingBox" primitiveUnits="userSpaceOnUse"><feGaussianBlur stdDeviation="1.5" in="SourceGraphic" result="blur"></feGaussianBlur></filter><clipPath id="ic_mic_glass_mic_clip"><rect x="6.75" y="0.75" width="10.5" height="13.75" rx="5.25"></rect></clipPath><mask id="ic_mic_glass_mic_mask"><rect width="100%" height="100%" fill="#FFF"></rect><rect x="6.75" y="0.75" width="10.5" height="13.75" rx="5.25" fill="#000"></rect></mask></defs></svg>